<mxfile host="Electron" agent="Mozilla/5.0 (Windows NT 10.0; Win64; x64) AppleWebKit/537.36 (KHTML, like Gecko) draw.io/26.1.1 Chrome/132.0.6834.210 Electron/34.3.3 Safari/537.36" version="26.1.1">
  <diagram id="C5RBs43oDa-KdzZeNtuy" name="Page-1">
    <mxGraphModel dx="2165" dy="868" grid="1" gridSize="10" guides="1" tooltips="1" connect="1" arrows="1" fold="1" page="1" pageScale="1" pageWidth="827" pageHeight="1169" math="0" shadow="0">
      <root>
        <mxCell id="WIyWlLk6GJQsqaUBKTNV-0" />
        <mxCell id="WIyWlLk6GJQsqaUBKTNV-1" parent="WIyWlLk6GJQsqaUBKTNV-0" />
        <mxCell id="JdDQd2eG0cCRkRYKPTTp-2" value="AutheticationManager" style="swimlane;fontStyle=1;align=center;verticalAlign=top;childLayout=stackLayout;horizontal=1;startSize=26;horizontalStack=0;resizeParent=1;resizeParentMax=0;resizeLast=0;collapsible=1;marginBottom=0;whiteSpace=wrap;html=1;" parent="WIyWlLk6GJQsqaUBKTNV-1" vertex="1">
          <mxGeometry x="300" y="160" width="160" height="80" as="geometry" />
        </mxCell>
        <mxCell id="JdDQd2eG0cCRkRYKPTTp-4" value="" style="line;strokeWidth=1;fillColor=none;align=left;verticalAlign=middle;spacingTop=-1;spacingLeft=3;spacingRight=3;rotatable=0;labelPosition=right;points=[];portConstraint=eastwest;strokeColor=inherit;" parent="JdDQd2eG0cCRkRYKPTTp-2" vertex="1">
          <mxGeometry y="26" width="160" height="10" as="geometry" />
        </mxCell>
        <mxCell id="JdDQd2eG0cCRkRYKPTTp-5" value="+ validateUser()&lt;div&gt;+ encryptPassword()&lt;/div&gt;" style="text;strokeColor=none;fillColor=none;align=left;verticalAlign=top;spacingLeft=4;spacingRight=4;overflow=hidden;rotatable=0;points=[[0,0.5],[1,0.5]];portConstraint=eastwest;whiteSpace=wrap;html=1;" parent="JdDQd2eG0cCRkRYKPTTp-2" vertex="1">
          <mxGeometry y="36" width="160" height="44" as="geometry" />
        </mxCell>
        <mxCell id="JdDQd2eG0cCRkRYKPTTp-26" value="ReviewSummarizer" style="swimlane;fontStyle=1;align=center;verticalAlign=top;childLayout=stackLayout;horizontal=1;startSize=26;horizontalStack=0;resizeParent=1;resizeParentMax=0;resizeLast=0;collapsible=1;marginBottom=0;whiteSpace=wrap;html=1;" parent="WIyWlLk6GJQsqaUBKTNV-1" vertex="1">
          <mxGeometry x="310" y="342" width="300" height="100" as="geometry" />
        </mxCell>
        <mxCell id="JdDQd2eG0cCRkRYKPTTp-27" value="- summary_text: string" style="text;strokeColor=none;fillColor=none;align=left;verticalAlign=top;spacingLeft=4;spacingRight=4;overflow=hidden;rotatable=0;points=[[0,0.5],[1,0.5]];portConstraint=eastwest;whiteSpace=wrap;html=1;" parent="JdDQd2eG0cCRkRYKPTTp-26" vertex="1">
          <mxGeometry y="26" width="300" height="26" as="geometry" />
        </mxCell>
        <mxCell id="JdDQd2eG0cCRkRYKPTTp-28" value="" style="line;strokeWidth=1;fillColor=none;align=left;verticalAlign=middle;spacingTop=-1;spacingLeft=3;spacingRight=3;rotatable=0;labelPosition=right;points=[];portConstraint=eastwest;strokeColor=inherit;" parent="JdDQd2eG0cCRkRYKPTTp-26" vertex="1">
          <mxGeometry y="52" width="300" height="8" as="geometry" />
        </mxCell>
        <mxCell id="JdDQd2eG0cCRkRYKPTTp-29" value="+ generateSummary(reviews: List&amp;lt;Review&amp;gt;): string" style="text;strokeColor=none;fillColor=none;align=left;verticalAlign=top;spacingLeft=4;spacingRight=4;overflow=hidden;rotatable=0;points=[[0,0.5],[1,0.5]];portConstraint=eastwest;whiteSpace=wrap;html=1;" parent="JdDQd2eG0cCRkRYKPTTp-26" vertex="1">
          <mxGeometry y="60" width="300" height="40" as="geometry" />
        </mxCell>
        <mxCell id="JdDQd2eG0cCRkRYKPTTp-30" value="ISummarizer" style="swimlane;fontStyle=1;align=center;verticalAlign=top;childLayout=stackLayout;horizontal=1;startSize=26;horizontalStack=0;resizeParent=1;resizeParentMax=0;resizeLast=0;collapsible=1;marginBottom=0;whiteSpace=wrap;html=1;" parent="WIyWlLk6GJQsqaUBKTNV-1" vertex="1">
          <mxGeometry x="390" y="570" width="320" height="60" as="geometry" />
        </mxCell>
        <mxCell id="JdDQd2eG0cCRkRYKPTTp-32" value="" style="line;strokeWidth=1;fillColor=none;align=left;verticalAlign=middle;spacingTop=-1;spacingLeft=3;spacingRight=3;rotatable=0;labelPosition=right;points=[];portConstraint=eastwest;strokeColor=inherit;" parent="JdDQd2eG0cCRkRYKPTTp-30" vertex="1">
          <mxGeometry y="26" width="320" height="8" as="geometry" />
        </mxCell>
        <mxCell id="JdDQd2eG0cCRkRYKPTTp-33" value="+ generateSummary(reviews: List&amp;lt;Review&amp;gt;): string" style="text;strokeColor=none;fillColor=none;align=left;verticalAlign=top;spacingLeft=4;spacingRight=4;overflow=hidden;rotatable=0;points=[[0,0.5],[1,0.5]];portConstraint=eastwest;whiteSpace=wrap;html=1;" parent="JdDQd2eG0cCRkRYKPTTp-30" vertex="1">
          <mxGeometry y="34" width="320" height="26" as="geometry" />
        </mxCell>
        <mxCell id="JdDQd2eG0cCRkRYKPTTp-34" value="DatabaseManager" style="swimlane;fontStyle=1;align=center;verticalAlign=top;childLayout=stackLayout;horizontal=1;startSize=26;horizontalStack=0;resizeParent=1;resizeParentMax=0;resizeLast=0;collapsible=1;marginBottom=0;whiteSpace=wrap;html=1;" parent="WIyWlLk6GJQsqaUBKTNV-1" vertex="1">
          <mxGeometry x="-140" y="125" width="160" height="90" as="geometry" />
        </mxCell>
        <mxCell id="JdDQd2eG0cCRkRYKPTTp-36" value="" style="line;strokeWidth=1;fillColor=none;align=left;verticalAlign=middle;spacingTop=-1;spacingLeft=3;spacingRight=3;rotatable=0;labelPosition=right;points=[];portConstraint=eastwest;strokeColor=inherit;" parent="JdDQd2eG0cCRkRYKPTTp-34" vertex="1">
          <mxGeometry y="26" width="160" height="8" as="geometry" />
        </mxCell>
        <mxCell id="JdDQd2eG0cCRkRYKPTTp-37" value="+ storeData()&lt;div&gt;+ retrieveData()&lt;/div&gt;&lt;div&gt;+deleteData()&lt;/div&gt;" style="text;strokeColor=none;fillColor=none;align=left;verticalAlign=top;spacingLeft=4;spacingRight=4;overflow=hidden;rotatable=0;points=[[0,0.5],[1,0.5]];portConstraint=eastwest;whiteSpace=wrap;html=1;" parent="JdDQd2eG0cCRkRYKPTTp-34" vertex="1">
          <mxGeometry y="34" width="160" height="56" as="geometry" />
        </mxCell>
        <mxCell id="JdDQd2eG0cCRkRYKPTTp-38" value="Movie" style="swimlane;fontStyle=1;align=center;verticalAlign=top;childLayout=stackLayout;horizontal=1;startSize=26;horizontalStack=0;resizeParent=1;resizeParentMax=0;resizeLast=0;collapsible=1;marginBottom=0;whiteSpace=wrap;html=1;" parent="WIyWlLk6GJQsqaUBKTNV-1" vertex="1">
          <mxGeometry x="-250" y="310" width="160" height="164" as="geometry" />
        </mxCell>
        <mxCell id="JdDQd2eG0cCRkRYKPTTp-39" value="- movie_id: int&lt;div&gt;- title: string&lt;/div&gt;&lt;div&gt;- genre: string&lt;/div&gt;&lt;div&gt;- release_date: date&lt;/div&gt;&lt;div&gt;- duration: int&lt;/div&gt;&lt;div&gt;- director: string&lt;/div&gt;&lt;div&gt;- cast: List&amp;lt;string&amp;gt;&lt;/div&gt;" style="text;strokeColor=none;fillColor=none;align=left;verticalAlign=top;spacingLeft=4;spacingRight=4;overflow=hidden;rotatable=0;points=[[0,0.5],[1,0.5]];portConstraint=eastwest;whiteSpace=wrap;html=1;" parent="JdDQd2eG0cCRkRYKPTTp-38" vertex="1">
          <mxGeometry y="26" width="160" height="104" as="geometry" />
        </mxCell>
        <mxCell id="JdDQd2eG0cCRkRYKPTTp-40" value="" style="line;strokeWidth=1;fillColor=none;align=left;verticalAlign=middle;spacingTop=-1;spacingLeft=3;spacingRight=3;rotatable=0;labelPosition=right;points=[];portConstraint=eastwest;strokeColor=inherit;" parent="JdDQd2eG0cCRkRYKPTTp-38" vertex="1">
          <mxGeometry y="130" width="160" height="8" as="geometry" />
        </mxCell>
        <mxCell id="JdDQd2eG0cCRkRYKPTTp-41" value="+ method(type): type" style="text;strokeColor=none;fillColor=none;align=left;verticalAlign=top;spacingLeft=4;spacingRight=4;overflow=hidden;rotatable=0;points=[[0,0.5],[1,0.5]];portConstraint=eastwest;whiteSpace=wrap;html=1;" parent="JdDQd2eG0cCRkRYKPTTp-38" vertex="1">
          <mxGeometry y="138" width="160" height="26" as="geometry" />
        </mxCell>
        <mxCell id="JdDQd2eG0cCRkRYKPTTp-42" value="Admin" style="swimlane;fontStyle=1;align=center;verticalAlign=top;childLayout=stackLayout;horizontal=1;startSize=26;horizontalStack=0;resizeParent=1;resizeParentMax=0;resizeLast=0;collapsible=1;marginBottom=0;whiteSpace=wrap;html=1;" parent="WIyWlLk6GJQsqaUBKTNV-1" vertex="1">
          <mxGeometry x="80" y="125" width="160" height="100" as="geometry" />
        </mxCell>
        <mxCell id="JdDQd2eG0cCRkRYKPTTp-43" value="- admin_id: int" style="text;strokeColor=none;fillColor=none;align=left;verticalAlign=top;spacingLeft=4;spacingRight=4;overflow=hidden;rotatable=0;points=[[0,0.5],[1,0.5]];portConstraint=eastwest;whiteSpace=wrap;html=1;" parent="JdDQd2eG0cCRkRYKPTTp-42" vertex="1">
          <mxGeometry y="26" width="160" height="26" as="geometry" />
        </mxCell>
        <mxCell id="JdDQd2eG0cCRkRYKPTTp-44" value="" style="line;strokeWidth=1;fillColor=none;align=left;verticalAlign=middle;spacingTop=-1;spacingLeft=3;spacingRight=3;rotatable=0;labelPosition=right;points=[];portConstraint=eastwest;strokeColor=inherit;" parent="JdDQd2eG0cCRkRYKPTTp-42" vertex="1">
          <mxGeometry y="52" width="160" height="8" as="geometry" />
        </mxCell>
        <mxCell id="JdDQd2eG0cCRkRYKPTTp-45" value="+ deleteReview()&lt;div&gt;+manageUsers()&lt;/div&gt;" style="text;strokeColor=none;fillColor=none;align=left;verticalAlign=top;spacingLeft=4;spacingRight=4;overflow=hidden;rotatable=0;points=[[0,0.5],[1,0.5]];portConstraint=eastwest;whiteSpace=wrap;html=1;" parent="JdDQd2eG0cCRkRYKPTTp-42" vertex="1">
          <mxGeometry y="60" width="160" height="40" as="geometry" />
        </mxCell>
        <mxCell id="JdDQd2eG0cCRkRYKPTTp-46" value="Review" style="swimlane;fontStyle=1;align=center;verticalAlign=top;childLayout=stackLayout;horizontal=1;startSize=26;horizontalStack=0;resizeParent=1;resizeParentMax=0;resizeLast=0;collapsible=1;marginBottom=0;whiteSpace=wrap;html=1;" parent="WIyWlLk6GJQsqaUBKTNV-1" vertex="1">
          <mxGeometry x="-110" y="700" width="160" height="220" as="geometry" />
        </mxCell>
        <mxCell id="JdDQd2eG0cCRkRYKPTTp-47" value="- review_id: int&lt;div&gt;- user_id: int&lt;/div&gt;&lt;div&gt;- movie_id: int&lt;/div&gt;&lt;div&gt;- text: string&lt;/div&gt;&lt;div&gt;rating: int&lt;/div&gt;&lt;div&gt;created_at: datetime&lt;/div&gt;&lt;div&gt;updated_at: datetime&lt;/div&gt;" style="text;strokeColor=none;fillColor=none;align=left;verticalAlign=top;spacingLeft=4;spacingRight=4;overflow=hidden;rotatable=0;points=[[0,0.5],[1,0.5]];portConstraint=eastwest;whiteSpace=wrap;html=1;" parent="JdDQd2eG0cCRkRYKPTTp-46" vertex="1">
          <mxGeometry y="26" width="160" height="114" as="geometry" />
        </mxCell>
        <mxCell id="JdDQd2eG0cCRkRYKPTTp-48" value="" style="line;strokeWidth=1;fillColor=none;align=left;verticalAlign=middle;spacingTop=-1;spacingLeft=3;spacingRight=3;rotatable=0;labelPosition=right;points=[];portConstraint=eastwest;strokeColor=inherit;" parent="JdDQd2eG0cCRkRYKPTTp-46" vertex="1">
          <mxGeometry y="140" width="160" height="8" as="geometry" />
        </mxCell>
        <mxCell id="JdDQd2eG0cCRkRYKPTTp-49" value="+ submitReview()&lt;div&gt;+ editReview()&lt;/div&gt;&lt;div&gt;+ deleteReview()&lt;/div&gt;&lt;div&gt;+reportReview()&lt;/div&gt;" style="text;strokeColor=none;fillColor=none;align=left;verticalAlign=top;spacingLeft=4;spacingRight=4;overflow=hidden;rotatable=0;points=[[0,0.5],[1,0.5]];portConstraint=eastwest;whiteSpace=wrap;html=1;" parent="JdDQd2eG0cCRkRYKPTTp-46" vertex="1">
          <mxGeometry y="148" width="160" height="72" as="geometry" />
        </mxCell>
        <mxCell id="JdDQd2eG0cCRkRYKPTTp-50" value="User" style="swimlane;fontStyle=1;align=center;verticalAlign=top;childLayout=stackLayout;horizontal=1;startSize=26;horizontalStack=0;resizeParent=1;resizeParentMax=0;resizeLast=0;collapsible=1;marginBottom=0;whiteSpace=wrap;html=1;" parent="WIyWlLk6GJQsqaUBKTNV-1" vertex="1">
          <mxGeometry x="30" y="367" width="180" height="218" as="geometry" />
        </mxCell>
        <mxCell id="JdDQd2eG0cCRkRYKPTTp-51" value="- user_id: int&lt;div&gt;- name: string&lt;/div&gt;&lt;div&gt;- email: string&lt;/div&gt;&lt;div&gt;- password: string&lt;/div&gt;&lt;div&gt;- profile_picture: string&lt;/div&gt;&lt;div&gt;- account_creation_date: date&lt;/div&gt;" style="text;strokeColor=none;fillColor=none;align=left;verticalAlign=top;spacingLeft=4;spacingRight=4;overflow=hidden;rotatable=0;points=[[0,0.5],[1,0.5]];portConstraint=eastwest;whiteSpace=wrap;html=1;" parent="JdDQd2eG0cCRkRYKPTTp-50" vertex="1">
          <mxGeometry y="26" width="180" height="94" as="geometry" />
        </mxCell>
        <mxCell id="JdDQd2eG0cCRkRYKPTTp-52" value="" style="line;strokeWidth=1;fillColor=none;align=left;verticalAlign=middle;spacingTop=-1;spacingLeft=3;spacingRight=3;rotatable=0;labelPosition=right;points=[];portConstraint=eastwest;strokeColor=inherit;" parent="JdDQd2eG0cCRkRYKPTTp-50" vertex="1">
          <mxGeometry y="120" width="180" height="8" as="geometry" />
        </mxCell>
        <mxCell id="JdDQd2eG0cCRkRYKPTTp-53" value="+ reguster()&lt;div&gt;+login()&lt;/div&gt;&lt;div&gt;+logout()&lt;/div&gt;&lt;div&gt;+ updateProfile()&lt;/div&gt;&lt;div&gt;+ deleteAccount()&lt;/div&gt;" style="text;strokeColor=none;fillColor=none;align=left;verticalAlign=top;spacingLeft=4;spacingRight=4;overflow=hidden;rotatable=0;points=[[0,0.5],[1,0.5]];portConstraint=eastwest;whiteSpace=wrap;html=1;" parent="JdDQd2eG0cCRkRYKPTTp-50" vertex="1">
          <mxGeometry y="128" width="180" height="90" as="geometry" />
        </mxCell>
        <mxCell id="JdDQd2eG0cCRkRYKPTTp-54" value="" style="endArrow=none;html=1;rounded=0;exitX=0.556;exitY=0.975;exitDx=0;exitDy=0;exitPerimeter=0;entryX=0.25;entryY=0;entryDx=0;entryDy=0;" parent="WIyWlLk6GJQsqaUBKTNV-1" source="JdDQd2eG0cCRkRYKPTTp-41" target="JdDQd2eG0cCRkRYKPTTp-46" edge="1">
          <mxGeometry width="50" height="50" relative="1" as="geometry">
            <mxPoint x="160" y="610" as="sourcePoint" />
            <mxPoint x="210" y="560" as="targetPoint" />
          </mxGeometry>
        </mxCell>
        <mxCell id="JdDQd2eG0cCRkRYKPTTp-55" value="" style="endArrow=none;html=1;rounded=0;exitX=0.75;exitY=0;exitDx=0;exitDy=0;entryX=0.152;entryY=1.002;entryDx=0;entryDy=0;entryPerimeter=0;" parent="WIyWlLk6GJQsqaUBKTNV-1" source="JdDQd2eG0cCRkRYKPTTp-46" target="JdDQd2eG0cCRkRYKPTTp-53" edge="1">
          <mxGeometry width="50" height="50" relative="1" as="geometry">
            <mxPoint x="160" y="610" as="sourcePoint" />
            <mxPoint x="210" y="560" as="targetPoint" />
          </mxGeometry>
        </mxCell>
        <mxCell id="JdDQd2eG0cCRkRYKPTTp-56" value="" style="endArrow=diamondThin;endFill=0;endSize=24;html=1;rounded=0;exitX=1;exitY=0.5;exitDx=0;exitDy=0;entryX=0.218;entryY=1.019;entryDx=0;entryDy=0;entryPerimeter=0;" parent="WIyWlLk6GJQsqaUBKTNV-1" source="JdDQd2eG0cCRkRYKPTTp-47" target="JdDQd2eG0cCRkRYKPTTp-29" edge="1">
          <mxGeometry width="160" relative="1" as="geometry">
            <mxPoint x="-10" y="400" as="sourcePoint" />
            <mxPoint x="410" y="480" as="targetPoint" />
          </mxGeometry>
        </mxCell>
        <mxCell id="JdDQd2eG0cCRkRYKPTTp-57" value="Extends" style="endArrow=block;endSize=16;endFill=0;html=1;rounded=0;entryX=0.5;entryY=0;entryDx=0;entryDy=0;exitX=0.798;exitY=1.049;exitDx=0;exitDy=0;exitPerimeter=0;" parent="WIyWlLk6GJQsqaUBKTNV-1" source="JdDQd2eG0cCRkRYKPTTp-29" target="JdDQd2eG0cCRkRYKPTTp-30" edge="1">
          <mxGeometry width="160" relative="1" as="geometry">
            <mxPoint x="160" y="600" as="sourcePoint" />
            <mxPoint x="320" y="600" as="targetPoint" />
          </mxGeometry>
        </mxCell>
        <mxCell id="JdDQd2eG0cCRkRYKPTTp-58" value="Extends" style="endArrow=block;endSize=16;endFill=0;html=1;rounded=0;exitX=0.25;exitY=0.974;exitDx=0;exitDy=0;exitPerimeter=0;entryX=0.5;entryY=0;entryDx=0;entryDy=0;" parent="WIyWlLk6GJQsqaUBKTNV-1" source="JdDQd2eG0cCRkRYKPTTp-45" target="JdDQd2eG0cCRkRYKPTTp-50" edge="1">
          <mxGeometry width="160" relative="1" as="geometry">
            <mxPoint x="160" y="600" as="sourcePoint" />
            <mxPoint x="320" y="600" as="targetPoint" />
          </mxGeometry>
        </mxCell>
        <mxCell id="JdDQd2eG0cCRkRYKPTTp-59" value="Use" style="endArrow=open;endSize=12;dashed=1;html=1;rounded=0;exitX=0.103;exitY=0.992;exitDx=0;exitDy=0;exitPerimeter=0;entryX=0.5;entryY=0;entryDx=0;entryDy=0;" parent="WIyWlLk6GJQsqaUBKTNV-1" source="JdDQd2eG0cCRkRYKPTTp-37" target="JdDQd2eG0cCRkRYKPTTp-38" edge="1">
          <mxGeometry width="160" relative="1" as="geometry">
            <mxPoint x="160" y="600" as="sourcePoint" />
            <mxPoint x="320" y="600" as="targetPoint" />
          </mxGeometry>
        </mxCell>
        <mxCell id="JdDQd2eG0cCRkRYKPTTp-60" value="Use" style="endArrow=open;endSize=12;dashed=1;html=1;rounded=0;exitX=0.853;exitY=0.992;exitDx=0;exitDy=0;exitPerimeter=0;entryX=0.25;entryY=0;entryDx=0;entryDy=0;" parent="WIyWlLk6GJQsqaUBKTNV-1" source="JdDQd2eG0cCRkRYKPTTp-37" target="JdDQd2eG0cCRkRYKPTTp-50" edge="1">
          <mxGeometry width="160" relative="1" as="geometry">
            <mxPoint x="160" y="600" as="sourcePoint" />
            <mxPoint x="320" y="600" as="targetPoint" />
          </mxGeometry>
        </mxCell>
        <mxCell id="JdDQd2eG0cCRkRYKPTTp-61" value="Use" style="endArrow=open;endSize=12;dashed=1;html=1;rounded=0;exitX=0.449;exitY=0.971;exitDx=0;exitDy=0;exitPerimeter=0;entryX=0.5;entryY=0;entryDx=0;entryDy=0;" parent="WIyWlLk6GJQsqaUBKTNV-1" source="JdDQd2eG0cCRkRYKPTTp-37" target="JdDQd2eG0cCRkRYKPTTp-46" edge="1">
          <mxGeometry width="160" relative="1" as="geometry">
            <mxPoint x="160" y="600" as="sourcePoint" />
            <mxPoint x="320" y="600" as="targetPoint" />
          </mxGeometry>
        </mxCell>
        <mxCell id="JdDQd2eG0cCRkRYKPTTp-62" value="1" style="text;html=1;align=center;verticalAlign=middle;resizable=0;points=[];autosize=1;strokeColor=none;fillColor=none;" parent="WIyWlLk6GJQsqaUBKTNV-1" vertex="1">
          <mxGeometry x="-185" y="474" width="30" height="30" as="geometry" />
        </mxCell>
        <mxCell id="JdDQd2eG0cCRkRYKPTTp-63" value="*" style="text;html=1;align=center;verticalAlign=middle;resizable=0;points=[];autosize=1;strokeColor=none;fillColor=none;" parent="WIyWlLk6GJQsqaUBKTNV-1" vertex="1">
          <mxGeometry x="-110" y="670" width="30" height="30" as="geometry" />
        </mxCell>
        <mxCell id="JdDQd2eG0cCRkRYKPTTp-64" value="has" style="text;html=1;align=center;verticalAlign=middle;resizable=0;points=[];autosize=1;strokeColor=none;fillColor=none;" parent="WIyWlLk6GJQsqaUBKTNV-1" vertex="1">
          <mxGeometry x="-140" y="618" width="40" height="30" as="geometry" />
        </mxCell>
        <mxCell id="JdDQd2eG0cCRkRYKPTTp-65" value="writes" style="text;html=1;align=center;verticalAlign=middle;resizable=0;points=[];autosize=1;strokeColor=none;fillColor=none;" parent="WIyWlLk6GJQsqaUBKTNV-1" vertex="1">
          <mxGeometry x="25" y="628" width="50" height="30" as="geometry" />
        </mxCell>
        <mxCell id="JdDQd2eG0cCRkRYKPTTp-66" value="1" style="text;html=1;align=center;verticalAlign=middle;resizable=0;points=[];autosize=1;strokeColor=none;fillColor=none;" parent="WIyWlLk6GJQsqaUBKTNV-1" vertex="1">
          <mxGeometry x="50" y="588" width="30" height="30" as="geometry" />
        </mxCell>
        <mxCell id="JdDQd2eG0cCRkRYKPTTp-68" value="*" style="text;html=1;align=center;verticalAlign=middle;resizable=0;points=[];autosize=1;strokeColor=none;fillColor=none;" parent="WIyWlLk6GJQsqaUBKTNV-1" vertex="1">
          <mxGeometry x="20" y="670" width="30" height="30" as="geometry" />
        </mxCell>
        <mxCell id="JdDQd2eG0cCRkRYKPTTp-69" value="1" style="text;html=1;align=center;verticalAlign=middle;resizable=0;points=[];autosize=1;strokeColor=none;fillColor=none;" parent="WIyWlLk6GJQsqaUBKTNV-1" vertex="1">
          <mxGeometry x="355" y="458" width="30" height="30" as="geometry" />
        </mxCell>
        <mxCell id="JdDQd2eG0cCRkRYKPTTp-70" value="*" style="text;html=1;align=center;verticalAlign=middle;resizable=0;points=[];autosize=1;strokeColor=none;fillColor=none;" parent="WIyWlLk6GJQsqaUBKTNV-1" vertex="1">
          <mxGeometry x="50" y="770" width="30" height="30" as="geometry" />
        </mxCell>
      </root>
    </mxGraphModel>
  </diagram>
</mxfile>
